<svg xmlns="http://www.w3.org/2000/svg" xmlns:xlink="http://www.w3.org/1999/xlink" width="65.424" height="72.1" viewBox="0 0 65.424 72.1"><defs><clipPath id="a"><rect width="65.424" height="72.1" fill="none"/></clipPath></defs><g clip-path="url(#a)"><g transform="translate(0 0)"><g transform="translate(0 53.913)"><path d="M54.226,96.086a6.229,6.229,0,0,0-3.091.755A5.23,5.23,0,0,0,49.1,98.91a6.136,6.136,0,0,0-.709,2.987,6.008,6.008,0,0,0,.732,3.033,4.916,4.916,0,0,0,2.063,1.981,6.589,6.589,0,0,0,3.068.686,8.284,8.284,0,0,0,1.922-.226,6.055,6.055,0,0,0,1.041-.343V104.39a7.321,7.321,0,0,1-2.632.581,3.118,3.118,0,0,1-2.406-5.381,3.237,3.237,0,0,1,2.324-.837,6.282,6.282,0,0,1,2.714.651V96.667A6.119,6.119,0,0,0,56.1,96.3a8.757,8.757,0,0,0-1.871-.215m10.884,8.443a3.812,3.812,0,0,1-1.883.477,1.517,1.517,0,0,1-1.278-.494,2.783,2.783,0,0,1-.378-1.639V99.387h3.486l-.982-2.411H61.594l-.128-3.068H58.561l.128,9.518a4.609,4.609,0,0,0,.959,3.2,3.847,3.847,0,0,0,2.952,1.04,7.453,7.453,0,0,0,1.605-.175,4.317,4.317,0,0,0,1.242-.453Zm-20.175-7.85a5.23,5.23,0,0,0-2.644-.657,5.363,5.363,0,0,0-2.871.767,5.079,5.079,0,0,0-1.906,2.086,6.45,6.45,0,0,0-.668,2.981,5.979,5.979,0,0,0,.773,3.1,5.044,5.044,0,0,0,2.167,2.016,7.3,7.3,0,0,0,3.254.686,10.46,10.46,0,0,0,2.284-.227,7.681,7.681,0,0,0,1.453-.465v-2.5a6.752,6.752,0,0,1-1.551.546,8.827,8.827,0,0,1-1.871.2c-2.057,0-3.26-.819-3.626-2.452h7.519a8,8,0,0,0,.1-1.29,6.281,6.281,0,0,0-.639-2.905,4.556,4.556,0,0,0-1.778-1.883m-5.23,3.986a3,3,0,0,1,.837-1.743,2.284,2.284,0,0,1,1.65-.616,2.255,2.255,0,0,1,1.65.616,2.743,2.743,0,0,1,.721,1.743Zm-6.247-3.946a4.614,4.614,0,0,0-2.522-.709A3.851,3.851,0,0,0,27.4,97.766l-.041-1.371H24.568V111h2.905v-4.922a3.486,3.486,0,0,0,1.383,1.2,4.317,4.317,0,0,0,1.923.418,4.544,4.544,0,0,0,2.644-.837,5.369,5.369,0,0,0,1.813-2.133,6.63,6.63,0,0,0,.639-2.905,6.892,6.892,0,0,0-.651-3.045,4.869,4.869,0,0,0-1.743-2.034m-1.278,7.38a2.8,2.8,0,0,1-4.068,0,3.661,3.661,0,0,1,0-4.538,2.783,2.783,0,0,1,4.068,0,3.655,3.655,0,0,1,0,4.538M19.646,100.59a5.1,5.1,0,0,1-1.453-.581.866.866,0,0,1-.366-.738c0-.581.511-.843,1.528-.843a6.393,6.393,0,0,1,1.621.227,6.148,6.148,0,0,1,1.447.581V96.679a6.548,6.548,0,0,0-1.232-.418,8.251,8.251,0,0,0-1.964-.232,4.974,4.974,0,0,0-3.161.9A2.987,2.987,0,0,0,14.9,99.4a3.039,3.039,0,0,0,.784,2.22,6.061,6.061,0,0,0,2.685,1.366,6.27,6.27,0,0,1,1.569.581.854.854,0,0,1,.378.755q0,.924-1.778.924a6.56,6.56,0,0,1-3.359-1.011V106.9a5.811,5.811,0,0,0,1.162.447,8.833,8.833,0,0,0,2.324.291,5.631,5.631,0,0,0,3.411-.872,2.905,2.905,0,0,0,1.22-2.5,3.01,3.01,0,0,0-.825-2.26,6.926,6.926,0,0,0-2.836-1.424M8.9,92.78H5.875L0,107.359H2.859l1.6-3.835h5.712l1.348,3.835h3.01Zm-3.486,8.193,1.557-4.329h.686l1.54,4.329Z" transform="translate(0 -92.78)" fill="#330c60"/></g><g transform="translate(23.739)"><path d="M41.09,7.4h5.7A.232.232,0,0,0,47,7.246l.86-2.173a.134.134,0,0,1,.116-.087h5.741a.134.134,0,0,1,.116.087l.86,2.173a.232.232,0,0,0,.215.151h5.7a.238.238,0,0,0,.238-.244.227.227,0,0,0,0-.081L58.226.721A1.058,1.058,0,0,0,57.261,0H44.425a1.058,1.058,0,0,0-.965.721L40.869,7.072a.238.238,0,0,0,.139.308.186.186,0,0,0,.081,0" transform="translate(-40.853 0)" fill="#330c60"/></g><g transform="translate(19.443 9.46)"><path d="M33.815,25H40.1a.343.343,0,0,0,.325-.232l.936-2.324a.349.349,0,0,1,.331-.232H53.769a.349.349,0,0,1,.325.232l.936,2.324a.349.349,0,0,0,.325.232h6.311a.366.366,0,0,0,.354-.366.343.343,0,0,0-.029-.128l-2.783-7.095a1.656,1.656,0,0,0-1.5-1.133H37.8a1.656,1.656,0,0,0-1.5,1.133l-2.807,7.095a.349.349,0,0,0,.2.465.314.314,0,0,0,.128.029" transform="translate(-33.461 -16.28)" fill="#330c60"/></g><g transform="translate(14.447 20.286)"><path d="M25.332,45.422h7.037a.471.471,0,0,0,.436-.308l1.214-3.068a.279.279,0,0,1,.261-.2H54a.285.285,0,0,1,.261.2l1.214,3.068a.459.459,0,0,0,.436.308h7.025a.476.476,0,0,0,.471-.488.79.79,0,0,0-.035-.169l-3.306-8.275a2.255,2.255,0,0,0-2.051-1.581H30.242A2.243,2.243,0,0,0,28.2,36.491l-3.3,8.275a.482.482,0,0,0,.267.622.418.418,0,0,0,.169.035" transform="translate(-24.863 -34.91)" fill="#330c60"/></g><g transform="translate(8.498 32.866)"><path d="M65.013,68.768l-4.05-10.21a2.847,2.847,0,0,0-2.592-2H21.333a2.847,2.847,0,0,0-2.592,2L14.674,68.774a.581.581,0,0,0,.325.779.674.674,0,0,0,.215.041H22.78a.581.581,0,0,0,.54-.378l1.7-4.224a.378.378,0,0,1,.331-.256H54.356a.378.378,0,0,1,.331.256l1.743,4.224a.581.581,0,0,0,.54.378h7.554a.581.581,0,0,0,.581-.581.68.68,0,0,0-.046-.215" transform="translate(-14.624 -56.56)" fill="#330c60"/></g></g></g></svg>