<svg xmlns="http://www.w3.org/2000/svg" width="97.711" height="55.807" viewBox="0 0 97.711 55.807"><path d="M0,0V2.117H3.041v7.8H5.677v-7.8H8.717V0Z" fill="#330c60"/><g transform="translate(0.128)"><g transform="translate(9.32)"><path d="M14.73,0h2.348V3.9a1.924,1.924,0,0,1,.783-.693,2.617,2.617,0,0,1,1.123-.237,2.117,2.117,0,0,1,1.751.725,3.252,3.252,0,0,1,.584,2.123v4.1H18.983V6.261c0-.8-.3-1.2-.9-1.2a.879.879,0,0,0-.744.334,1.533,1.533,0,0,0-.263.956V9.917H14.73Z" transform="translate(-14.73)" fill="#330c60"/></g><g transform="translate(16.638 2.964)"><path d="M30.2,11.779a4.92,4.92,0,0,1-2.142-.423,3.207,3.207,0,0,1-1.418-1.225,3.554,3.554,0,0,1-.5-1.924,3.778,3.778,0,0,1,.43-1.828A3.207,3.207,0,0,1,27.8,5.095a3.631,3.631,0,0,1,1.86-.468,3.207,3.207,0,0,1,2.405.879,3.361,3.361,0,0,1,.9,2.463,3.8,3.8,0,0,1-.083.808H28.448a1.43,1.43,0,0,0,.686.866,2.739,2.739,0,0,0,1.373.282,5.639,5.639,0,0,0,1.136-.115,4.413,4.413,0,0,0,1.02-.334l.205,1.8a4.888,4.888,0,0,1-1.232.378,7.794,7.794,0,0,1-1.443.128m.577-4.356a1.315,1.315,0,0,0-.359-.821,1.065,1.065,0,0,0-.789-.3A1.193,1.193,0,0,0,28.41,7.43Z" transform="translate(-26.138 -4.621)" fill="#330c60"/></g><g transform="translate(0 14.016)"><path d="M3.7,32.21A8.583,8.583,0,0,1,2.413,32.1a6.9,6.9,0,0,1-1.244-.3A3.708,3.708,0,0,1,.2,31.344L.437,29.22a5.2,5.2,0,0,0,1.475.641,5.863,5.863,0,0,0,1.668.244A2.072,2.072,0,0,0,4.7,29.862a.751.751,0,0,0,.391-.68.641.641,0,0,0-.16-.443,1.353,1.353,0,0,0-.526-.34A9.327,9.327,0,0,0,3.4,28.053a4.92,4.92,0,0,1-2.316-1.206,2.713,2.713,0,0,1-.712-1.976,2.662,2.662,0,0,1,1.014-2.207,4.323,4.323,0,0,1,2.758-.808,7.614,7.614,0,0,1,1.7.212,4.927,4.927,0,0,1,1.418.564l-.34,2.046a4.978,4.978,0,0,0-1.283-.532,5.26,5.26,0,0,0-1.373-.2c-.9,0-1.36.289-1.36.86a.641.641,0,0,0,.308.564,5.016,5.016,0,0,0,1.193.468,5.991,5.991,0,0,1,2.527,1.283A2.643,2.643,0,0,1,7.7,29.1a2.771,2.771,0,0,1-1.052,2.3A4.651,4.651,0,0,1,3.7,32.21" transform="translate(-0.2 -21.85)" fill="#330c60"/></g><g transform="translate(7.621 15.652)"><path d="M15.775,33.124a2.566,2.566,0,0,1-1.924-.641,2.745,2.745,0,0,1-.641-1.995V28.056H12.08V26.132h1.148V24.4h2.335v1.732h1.924v1.924H15.563v1.86a1.45,1.45,0,0,0,.192.847.821.821,0,0,0,.68.25,2.258,2.258,0,0,0,1.1-.25l.237,1.924a3.034,3.034,0,0,1-.872.289,5.561,5.561,0,0,1-1.129.1" transform="translate(-12.08 -24.4)" fill="#330c60"/></g><g transform="translate(13.984 17.318)"><path d="M22,27.1h2.284V28.1a1.924,1.924,0,0,1,.68-.84A1.745,1.745,0,0,1,25.958,27a1.873,1.873,0,0,1,.77.148l-.18,2.213a2.328,2.328,0,0,0-.86-.167,1.193,1.193,0,0,0-1.026.449,2.187,2.187,0,0,0-.346,1.334v2.887H22Z" transform="translate(-22 -26.998)" fill="#330c60"/></g><g transform="translate(18.769 17.242)"><path d="M32.52,34.013a2.88,2.88,0,0,1-1.565-.443,2.989,2.989,0,0,1-1.1-1.244,4.445,4.445,0,0,1,0-3.676,3.252,3.252,0,0,1,1.11-1.283A2.842,2.842,0,0,1,32.6,26.88a2.3,2.3,0,0,1,1.11.263,2.072,2.072,0,0,1,.815.725v-.783h2.213V33.82h-2.2v-.77a1.976,1.976,0,0,1-.815.725,2.63,2.63,0,0,1-1.167.257m.641-2.091a1.244,1.244,0,0,0,.981-.417,1.719,1.719,0,0,0,0-2.142,1.366,1.366,0,0,0-1.963,0,1.681,1.681,0,0,0,0,2.142,1.283,1.283,0,0,0,.988.417" transform="translate(-29.46 -26.879)" fill="#330c60"/></g><g transform="translate(26.499 15.652)"><path d="M45.2,33.124a2.566,2.566,0,0,1-1.924-.641,2.816,2.816,0,0,1-.641-1.995V28.056H41.51V26.132h1.148V24.4h2.373v1.732h1.924v1.924H45.032v1.86a1.347,1.347,0,0,0,.192.847.808.808,0,0,0,.641.25,2.226,2.226,0,0,0,1.09-.244l.237,1.924a3.207,3.207,0,0,1-.866.282,6.068,6.068,0,0,1-1.129.109" transform="translate(-41.51 -24.4)" fill="#330c60"/></g><g transform="translate(32.424 17.218)"><path d="M54.81,34a5.132,5.132,0,0,1-2.142-.423,3.265,3.265,0,0,1-1.418-1.232,3.554,3.554,0,0,1-.5-1.924,3.759,3.759,0,0,1,.43-1.822,3.207,3.207,0,0,1,1.232-1.283,3.631,3.631,0,0,1,1.86-.468,3.207,3.207,0,0,1,2.412.892,3.387,3.387,0,0,1,.892,2.463,4.311,4.311,0,0,1-.077.808H53.058a1.443,1.443,0,0,0,.686.866,2.777,2.777,0,0,0,1.379.282,5.606,5.606,0,0,0,1.135-.083,4.792,4.792,0,0,0,1.014-.327l.212,1.758a4.856,4.856,0,0,1-1.238.378,7.7,7.7,0,0,1-1.437.128m.577-4.381a1.283,1.283,0,0,0-.366-.821,1.091,1.091,0,0,0-.789-.3,1.193,1.193,0,0,0-1.212,1.123Z" transform="translate(-50.748 -26.841)" fill="#330c60"/></g><g transform="translate(39.934 17.236)"><path d="M65.826,37.1a7.441,7.441,0,0,1-1.456-.16,4.452,4.452,0,0,1-1.174-.366l.25-2.059a3.99,3.99,0,0,0,.994.385,4.131,4.131,0,0,0,1.084.148c1.283,0,1.969-.577,1.969-1.732V33a2.168,2.168,0,0,1-.821.641,2.842,2.842,0,0,1-1.148.225,2.88,2.88,0,0,1-1.552-.417,2.97,2.97,0,0,1-1.1-1.2,3.849,3.849,0,0,1-.411-1.815,4.028,4.028,0,0,1,.346-1.8,3.207,3.207,0,0,1,1.1-1.283,2.848,2.848,0,0,1,1.636-.488,2.3,2.3,0,0,1,1.11.263,2.1,2.1,0,0,1,.808.725v-.783h2.207V33.24a3.907,3.907,0,0,1-.988,2.887,3.983,3.983,0,0,1-2.906.975m.314-5.311a1.283,1.283,0,0,0,1.36-1.373,1.559,1.559,0,0,0-.378-1.071,1.366,1.366,0,0,0-1.924-.032v.032a1.507,1.507,0,0,0-.417,1.071,1.315,1.315,0,0,0,1.283,1.373h.109" transform="translate(-62.455 -26.869)" fill="#330c60"/></g><g transform="translate(48.122 13.875)"><path d="M76.541,24.119a1.366,1.366,0,0,1-.943-.327,1.187,1.187,0,0,1-.378-.9A1.212,1.212,0,0,1,75.6,22a1.392,1.392,0,0,1,1.879,0,1.283,1.283,0,0,1,0,1.8,1.341,1.341,0,0,1-.937.359M75.367,25.2h2.348v6.735H75.367Z" transform="translate(-75.219 -21.631)" fill="#330c60"/></g><g transform="translate(51.417 17.229)"><path d="M84.04,33.961a4.157,4.157,0,0,1-1.924-.423,3.169,3.169,0,0,1-1.283-1.219,3.567,3.567,0,0,1-.475-1.879,3.624,3.624,0,0,1,.411-1.828,3.329,3.329,0,0,1,1.283-1.283,4.009,4.009,0,0,1,1.924-.468A5.773,5.773,0,0,1,85.259,27a4.4,4.4,0,0,1,1.058.366l-.276,1.969a4.048,4.048,0,0,0-1.732-.391,1.835,1.835,0,0,0-1.238.391,1.5,1.5,0,0,0,0,2.123h0a1.924,1.924,0,0,0,1.283.385,4.676,4.676,0,0,0,1.77-.391l.231,1.924a4.022,4.022,0,0,1-1.1.436,5.08,5.08,0,0,1-1.283.148" transform="translate(-80.355 -26.86)" fill="#330c60"/></g><g transform="translate(0.022 28.326)"><path d="M5.575,54.359a6.209,6.209,0,0,1-2.822-.6A4.407,4.407,0,0,1,.88,52.011a5.311,5.311,0,0,1-.641-2.726,5.574,5.574,0,0,1,.34-2.021,4.683,4.683,0,0,1,1.078-1.6,4.933,4.933,0,0,1,1.732-1.1,6.03,6.03,0,0,1,2.258-.4,6.947,6.947,0,0,1,1.706.212,5.26,5.26,0,0,1,1.43.558l-.411,2.162a6.517,6.517,0,0,0-1.283-.462,5.774,5.774,0,0,0-1.283-.16,2.861,2.861,0,0,0-2.1.757,2.7,2.7,0,0,0-.783,2.046A2.649,2.649,0,0,0,3.7,51.305a2.912,2.912,0,0,0,2.162.744,5.183,5.183,0,0,0,1.366-.205,7.435,7.435,0,0,0,1.4-.545L8.9,53.557a5.831,5.831,0,0,1-1.507.584,7.268,7.268,0,0,1-1.783.225" transform="translate(-0.235 -44.159)" fill="#330c60"/></g><g transform="translate(9.275 31.437)"><path d="M18.367,56.168a3.907,3.907,0,0,1-1.86-.449,3.413,3.413,0,0,1-1.347-1.283,3.49,3.49,0,0,1-.5-1.867,3.586,3.586,0,0,1,.462-1.8A3.329,3.329,0,0,1,16.4,49.491a3.81,3.81,0,0,1,1.924-.481,3.849,3.849,0,0,1,1.86.443,3.31,3.31,0,0,1,1.341,1.283,3.49,3.49,0,0,1,.5,1.867,3.624,3.624,0,0,1-.455,1.79,3.515,3.515,0,0,1-1.283,1.283,3.894,3.894,0,0,1-1.924.494m0-2.091a1.283,1.283,0,0,0,1-.417,1.7,1.7,0,0,0,0-2.142,1.366,1.366,0,0,0-1.963,0,1.681,1.681,0,0,0,0,2.142,1.283,1.283,0,0,0,.981.417" transform="translate(-14.659 -49.009)" fill="#330c60"/></g><g transform="translate(17.435 31.431)"><path d="M27.38,49.224h2.284v.821a1.758,1.758,0,0,1,.763-.763,2.45,2.45,0,0,1,1.2-.282,2.232,2.232,0,0,1,1.161.289,2,2,0,0,1,.763.834,2,2,0,0,1,.834-.815,2.617,2.617,0,0,1,1.283-.3,2.187,2.187,0,0,1,1.783.725,3.207,3.207,0,0,1,.641,2.117v4.1H35.732V52.3a1.565,1.565,0,0,0-.218-.911.77.77,0,0,0-.68-.3.84.84,0,0,0-.706.334,1.591,1.591,0,0,0-.244.962v3.567H31.556V52.3a1.565,1.565,0,0,0-.218-.911.8.8,0,0,0-.641-.3.84.84,0,0,0-.718.334,1.546,1.546,0,0,0-.25.962v3.567H27.38Z" transform="translate(-27.38 -48.999)" fill="#330c60"/></g><g transform="translate(29.148 31.427)"><path d="M45.64,49.222h2.284v.821a1.8,1.8,0,0,1,.77-.763A2.4,2.4,0,0,1,49.9,49a2.232,2.232,0,0,1,1.161.289,2.053,2.053,0,0,1,.783.821,2,2,0,0,1,.834-.815A2.617,2.617,0,0,1,53.96,49a2.207,2.207,0,0,1,1.783.725,3.207,3.207,0,0,1,.6,2.117v4.1H53.992V52.282a1.559,1.559,0,0,0-.212-.911.8.8,0,0,0-.641-.3.84.84,0,0,0-.706.334,1.6,1.6,0,0,0-.25.962v3.567H49.816V52.282a1.559,1.559,0,0,0-.212-.911.8.8,0,0,0-.641-.3.847.847,0,0,0-.718.334,1.591,1.591,0,0,0-.244.962v3.567H45.64Z" transform="translate(-45.64 -48.993)" fill="#330c60"/></g><g transform="translate(40.821 31.65)"><path d="M66.194,56.287a2.136,2.136,0,0,1-1.751-.751,3.291,3.291,0,0,1-.6-2.123V49.34h2.348v3.631c0,.8.3,1.206.9,1.206a.9.9,0,0,0,.751-.34,1.571,1.571,0,0,0,.257-.956V49.34h2.348v6.735h-2.3v-.834a1.693,1.693,0,0,1-.757.77,2.4,2.4,0,0,1-1.174.276" transform="translate(-63.838 -49.34)" fill="#330c60"/></g><g transform="translate(48.501 31.427)"><path d="M75.81,49.222h2.3v.834a1.693,1.693,0,0,1,.757-.77,2.438,2.438,0,0,1,1.2-.289,2.155,2.155,0,0,1,1.758.725,3.278,3.278,0,0,1,.59,2.117v4.1H80.063V52.282c0-.8-.3-1.206-.9-1.206a.9.9,0,0,0-.744.334,1.507,1.507,0,0,0-.257.962v3.567H75.81Z" transform="translate(-75.81 -48.993)" fill="#330c60"/></g><g transform="translate(55.993 28.076)"><path d="M88.8,46.291a1.328,1.328,0,0,1-.937-.359,1.167,1.167,0,0,1-.378-.9,1.187,1.187,0,0,1,.378-.9,1.283,1.283,0,0,1,.937-.366,1.321,1.321,0,0,1,.943.366,1.212,1.212,0,0,1,.378.9,1.193,1.193,0,0,1-.385.9,1.328,1.328,0,0,1-.937.359m-1.174,1.052h2.348v6.735H87.631Z" transform="translate(-87.489 -43.769)" fill="#330c60"/></g><g transform="translate(59.25 31.463)"><path d="M96.29,56.157a4.163,4.163,0,0,1-1.924-.43,3.15,3.15,0,0,1-1.321-1.219,3.567,3.567,0,0,1-.475-1.879,3.7,3.7,0,0,1,.455-1.828,3.329,3.329,0,0,1,1.283-1.283,4.009,4.009,0,0,1,1.924-.468,5.773,5.773,0,0,1,1.283.141,4.4,4.4,0,0,1,1.058.366L98.3,51.526a4.041,4.041,0,0,0-1.732-.385,1.815,1.815,0,0,0-1.232.385,1.36,1.36,0,0,0-.449,1.071,1.328,1.328,0,0,0,.455,1.078,1.924,1.924,0,0,0,1.283.385,4.708,4.708,0,0,0,1.777-.391l.231,1.924A4.067,4.067,0,0,1,97.553,56a5.4,5.4,0,0,1-1.283.154" transform="translate(-92.568 -49.05)" fill="#330c60"/></g><g transform="translate(65.672 31.47)"><path d="M105.646,56.186a2.88,2.88,0,0,1-1.565-.443,2.989,2.989,0,0,1-1.1-1.244,4.17,4.17,0,0,1-.4-1.867,4.08,4.08,0,0,1,.391-1.8,3.207,3.207,0,0,1,1.11-1.283,2.842,2.842,0,0,1,1.629-.488,2.476,2.476,0,0,1,1.11.263,2.1,2.1,0,0,1,.808.725v-.783h2.207V56h-2.207v-.77a1.976,1.976,0,0,1-.815.725,2.63,2.63,0,0,1-1.167.257m.641-2.091a1.283,1.283,0,0,0,.981-.417,1.52,1.52,0,0,0,.372-1.071,1.559,1.559,0,0,0-.378-1.071,1.366,1.366,0,0,0-1.963,0,1.681,1.681,0,0,0,0,2.142,1.283,1.283,0,0,0,.988.417" transform="translate(-102.579 -49.06)" fill="#330c60"/></g><g transform="translate(73.39 29.918)"><path d="M118.324,55.319a2.566,2.566,0,0,1-1.924-.641,2.816,2.816,0,0,1-.641-1.995V50.271H114.61V48.378h1.148V46.64h2.309v1.738h1.924v1.892h-1.924v1.86a1.424,1.424,0,0,0,.2.853.821.821,0,0,0,.674.244,2.258,2.258,0,0,0,1.1-.25l.237,1.924a3.207,3.207,0,0,1-.866.282,6.068,6.068,0,0,1-1.129.109" transform="translate(-114.61 -46.64)" fill="#330c60"/></g><g transform="translate(79.604 28.077)"><path d="M125.608,46.291a1.354,1.354,0,0,1-.943-.359,1.283,1.283,0,0,1,0-1.8,1.392,1.392,0,0,1,1.879,0,1.283,1.283,0,0,1,0,1.8,1.328,1.328,0,0,1-.937.359m-1.174,1.052h2.348v6.735h-2.348Z" transform="translate(-124.298 -43.771)" fill="#330c60"/></g><g transform="translate(82.838 31.441)"><path d="M133.054,56.17a3.906,3.906,0,0,1-1.86-.449,3.413,3.413,0,0,1-1.347-1.283,3.708,3.708,0,0,1-.045-3.663,3.458,3.458,0,0,1,1.315-1.283,4.118,4.118,0,0,1,3.778-.038,3.349,3.349,0,0,1,1.341,1.283,3.746,3.746,0,0,1,.038,3.656,3.329,3.329,0,0,1-1.283,1.283,3.894,3.894,0,0,1-1.924.494m0-2.091a1.283,1.283,0,0,0,.975-.417,1.7,1.7,0,0,0,0-2.142,1.366,1.366,0,0,0-1.963,0,1.681,1.681,0,0,0,0,2.142,1.283,1.283,0,0,0,.988.417" transform="translate(-129.34 -49.014)" fill="#330c60"/></g><g transform="translate(90.959 31.44)"><path d="M142.038,49.229h2.3v.834a1.694,1.694,0,0,1,.757-.77,2.47,2.47,0,0,1,1.174-.276,2.155,2.155,0,0,1,1.758.725,3.207,3.207,0,0,1,.59,2.117v4.1h-2.348V52.3c0-.8-.3-1.206-.9-1.206a.9.9,0,0,0-.744.334,1.507,1.507,0,0,0-.257.962v3.567H142Z" transform="translate(-142 -49.013)" fill="#330c60"/></g></g><g transform="translate(0.584 42.702)"><path d="M.91,66.57H7.8v2.091H3.405v1.77H7.254V72.5H3.405v1.924h4.58v2.046H.91Z" transform="translate(-0.91 -66.57)" fill="#330c60"/></g><g transform="translate(8.076 45.89)"><path d="M15.053,74.786,12.718,71.54h2.636l1.084,1.77L17.5,71.54h2.521L17.7,74.824l2.47,3.425H17.536L16.31,76.255l-1.2,1.995H12.59Z" transform="translate(-12.59 -71.54)" fill="#330c60"/></g><g transform="translate(16.216 44.152)"><g transform="translate(0 1.526)"><path d="M25.28,71.421h2.207v.77a2,2,0,0,1,.821-.725,2.63,2.63,0,0,1,1.167-.257,2.816,2.816,0,0,1,1.565.436,3.034,3.034,0,0,1,1.116,1.244,4.086,4.086,0,0,1,.4,1.867,4.009,4.009,0,0,1-.4,1.809,3.207,3.207,0,0,1-1.11,1.283,2.835,2.835,0,0,1-1.629.494,2.457,2.457,0,0,1-1.026-.218,2.072,2.072,0,0,1-.776-.59v3.8H25.28Zm3.579,4.849a1.283,1.283,0,0,0,.981-.417,1.681,1.681,0,0,0,0-2.142,1.366,1.366,0,0,0-1.924,0h-.032a1.7,1.7,0,0,0,0,2.142,1.283,1.283,0,0,0,.981.417" transform="translate(-25.28 -71.209)" fill="#330c60"/></g><g transform="translate(7.728 1.516)"><path d="M41.39,78.356a5.023,5.023,0,0,1-2.142-.43A3.207,3.207,0,0,1,37.829,76.7a3.554,3.554,0,0,1-.5-1.924,3.778,3.778,0,0,1,.43-1.828,3.207,3.207,0,0,1,1.232-1.283,3.631,3.631,0,0,1,1.86-.468,3.207,3.207,0,0,1,2.405.9,3.361,3.361,0,0,1,.917,2.47,3.8,3.8,0,0,1-.083.808H39.638a1.43,1.43,0,0,0,.686.866,2.739,2.739,0,0,0,1.373.282,5.639,5.639,0,0,0,1.136-.115,4.727,4.727,0,0,0,1.02-.327l.205,1.758a4.887,4.887,0,0,1-1.232.378,7.274,7.274,0,0,1-1.443.128m.577-4.381a1.283,1.283,0,0,0-.353-.821,1.116,1.116,0,0,0-.789-.3,1.193,1.193,0,0,0-1.212,1.123Z" transform="translate(-37.328 -71.193)" fill="#330c60"/></g><g transform="translate(15.389 1.603)"><path d="M49.27,71.464h2.284v1a1.969,1.969,0,0,1,.674-.84,1.745,1.745,0,0,1,1.007-.3,1.873,1.873,0,0,1,.77.148l-.154,2.207a2.329,2.329,0,0,0-.86-.167,1.212,1.212,0,0,0-1.026.449,2.175,2.175,0,0,0-.346,1.334v2.874H49.27Z" transform="translate(-49.27 -71.329)" fill="#330c60"/></g><g transform="translate(20.398)"><path d="M60.768,77.509a2.566,2.566,0,0,1-1.924-.641,2.745,2.745,0,0,1-.641-1.995V72.461H57.08V70.568h1.148V68.83h2.335v1.738h1.924v1.892H60.563v1.86a1.379,1.379,0,0,0,.192.853.84.84,0,0,0,.68.244,2.251,2.251,0,0,0,1.1-.244l.231,1.924a3.207,3.207,0,0,1-.866.282,6.067,6.067,0,0,1-1.129.109" transform="translate(-57.08 -68.83)" fill="#330c60"/></g><g transform="translate(26.698 1.516)"><path d="M69.6,78.356a6.158,6.158,0,0,1-1.533-.186,3.336,3.336,0,0,1-1.167-.481l.263-1.713a4.028,4.028,0,0,0,1.1.494,4.24,4.24,0,0,0,1.2.173q.847,0,.847-.4a.366.366,0,0,0-.192-.327,3.952,3.952,0,0,0-.8-.276,3.894,3.894,0,0,1-1.764-.847,1.924,1.924,0,0,1-.526-1.437,1.847,1.847,0,0,1,.77-1.578,3.534,3.534,0,0,1,2.117-.577,6.21,6.21,0,0,1,1.334.148,3.637,3.637,0,0,1,1.09.391L72.1,73.423a4.862,4.862,0,0,0-1.02-.372,4.041,4.041,0,0,0-1.033-.135c-.475,0-.718.128-.718.391a.372.372,0,0,0,.205.327,3.419,3.419,0,0,0,.8.269,3.849,3.849,0,0,1,1.77.847,1.989,1.989,0,0,1,.545,1.45,1.815,1.815,0,0,1-.8,1.578,3.887,3.887,0,0,1-2.245.564" transform="translate(-66.9 -71.193)" fill="#330c60"/></g></g></svg>