<svg xmlns="http://www.w3.org/2000/svg" xmlns:xlink="http://www.w3.org/1999/xlink" width="270" height="339.742" viewBox="0 0 270 339.742"><defs><clipPath id="a"><rect width="270" height="339.742" fill="none"/></clipPath></defs><g transform="translate(0 -0.46)"><g transform="translate(0 0.46)" clip-path="url(#a)"><path d="M.009,248.467h0c49.575,0,94.535-20.557,127.138-53.758a.426.426,0,0,0,.238-.118c.433-.442.853-.893,1.281-1.34.566-.59,1.138-1.177,1.694-1.772.507-.543,1-1.094,1.5-1.64.474-.521.954-1.037,1.422-1.562.509-.571,1-1.151,1.506-1.726.442-.509.888-1.014,1.323-1.526.5-.593,1-1.192,1.492-1.79.417-.5.837-1.005,1.248-1.512.5-.614.984-1.233,1.472-1.851.392-.5.786-.994,1.174-1.5.49-.634.971-1.273,1.452-1.913.37-.492.74-.983,1.1-1.477.483-.656.958-1.316,1.431-1.977.346-.485.692-.968,1.033-1.455q.711-1.016,1.407-2.039.486-.714.966-1.431.7-1.051,1.385-2.108.45-.7.894-1.4.689-1.086,1.363-2.18.417-.678.826-1.358.677-1.124,1.34-2.254c.255-.436.505-.875.755-1.312q.669-1.165,1.322-2.337c.229-.415.453-.831.679-1.247.441-.811.879-1.622,1.307-2.438.2-.381.394-.765.59-1.148.441-.855.88-1.71,1.307-2.571.164-.329.32-.661.481-.991.448-.917.893-1.834,1.325-2.757.108-.229.21-.461.317-.691.478-1.033.952-2.068,1.41-3.108.019-.042.038-.085.057-.128q.721-1.638,1.411-3.287c.019-.045.039-.091.058-.136.051-.125.1-.249.153-.373.08-.192.157-.386.237-.577.1-.241.2-.481.3-.722l.143-.357c.176-.437.353-.873.525-1.311.019-.046.038-.093.056-.139.05-.126.1-.253.145-.379.327-.832.644-1.669.959-2.507.035-.093.07-.187.1-.279.073-.2.147-.39.218-.585l.055-.146c.235-.639.458-1.283.687-1.924l-.012.033c.18-.5.364-1.006.54-1.513l0,.013c.041-.118.085-.234.126-.353.261-.755.508-1.517.759-2.277.138-.417.281-.831.416-1.25.014-.042.029-.084.042-.127s.023-.067.034-.1c.312-.971.61-1.948.907-2.927.076-.251.157-.5.233-.751q.588-1.97,1.135-3.958v0A186.371,186.371,0,0,0,179.721,77c.079-1.191.143-2.387.2-3.584.016-.333.028-.665.042-1q.072-1.7.114-3.412c0-.108.006-.215.009-.323.031-1.378.053-2.758.053-4.144a.436.436,0,0,0-.084-.247A188.181,188.181,0,0,0,168.675,0h-.939a187.783,187.783,0,0,1,9.823,89.133c-.006.046-.013.092-.019.138q-.26,1.967-.562,3.929c-.014.092-.031.183-.045.274q-.295,1.894-.625,3.782c-.023.126-.049.25-.071.376q-.328,1.836-.689,3.666c-.032.162-.069.322-.1.484-.239,1.182-.485,2.363-.747,3.541-.048.215-.1.429-.15.644-.254,1.124-.512,2.247-.787,3.367-.059.242-.126.483-.186.725-.273,1.09-.549,2.181-.841,3.268-.072.264-.15.525-.222.789-.291,1.063-.585,2.125-.9,3.184-.083.285-.174.567-.259.852-.309,1.035-.619,2.068-.946,3.1-.1.307-.2.612-.3.918-.325,1.006-.65,2.01-.993,3.009-.111.325-.231.646-.343.97-.346.992-.692,1.984-1.055,2.971-.045.123-.091.247-.138.37-.388,1.05-.792,2.1-1.2,3.139q-.454,1.154-.922,2.3-.24.59-.484,1.181a183.532,183.532,0,0,1-59.7,76.494l-.029.021q-1.277.948-2.57,1.875l-.111.08q-1.254.9-2.524,1.772l-.179.122q-1.239.852-2.49,1.683l-.24.157q-1.222.809-2.46,1.6l-.3.193q-1.208.768-2.43,1.517l-.357.218q-1.2.728-2.4,1.44l-.418.244q-1.186.692-2.381,1.367l-.463.259q-1.177.661-2.365,1.3l-.509.273q-1.169.626-2.348,1.236l-.554.285q-1.162.6-2.335,1.175l-.591.291q-1.157.566-2.323,1.115c-.211.1-.42.2-.632.3q-1.153.539-2.315,1.059l-.665.3q-1.146.509-2.3,1c-.237.1-.472.2-.709.3q-1.141.482-2.292.947c-.246.1-.492.2-.738.3q-1.137.456-2.285.895c-.258.1-.517.2-.775.3q-1.133.43-2.275.843l-.806.293q-1.132.4-2.27.792c-.28.1-.558.192-.838.286-.752.254-1.507.5-2.262.743-.29.093-.579.188-.869.279-.752.238-1.507.468-2.261.7-.3.089-.593.18-.89.268q-1.125.332-2.259.647c-.306.086-.61.173-.917.258-.749.206-1.5.4-2.257.6-.313.081-.626.165-.94.245-.752.192-1.507.375-2.263.556-.318.077-.636.156-.954.231-.754.176-1.51.344-2.266.511-.326.072-.649.146-.976.216-.753.162-1.509.315-2.266.466-.332.067-.663.136-1,.2-.75.146-1.5.283-2.256.419-.343.063-.686.127-1.029.187-.75.132-1.5.253-2.256.375-.348.056-.694.116-1.043.17-.755.117-1.514.225-2.272.333-.349.049-.7.1-1.047.149-.757.1-1.517.2-2.277.289-.354.042-.707.09-1.062.132-.767.088-1.536.167-2.305.247-.349.035-.7.076-1.047.11-.781.075-1.564.141-2.348.205-.341.028-.682.062-1.024.088-.8.062-1.6.112-2.4.164-.329.02-.656.046-.985.065-.832.048-1.666.085-2.5.121-.3.013-.6.032-.907.043-.9.034-1.8.058-2.709.079-.238.006-.474.016-.712.02q-1.716.033-3.439.034H0v.884H.009" transform="translate(-0.001 -0.458)" fill="#ebebeb"/><path d="M269.983,64.461A283.229,283.229,0,0,0,262.566,0h-.909A282.307,282.307,0,0,1,269.1,64.542c0,73.4-27.992,142.4-78.821,194.306l-.006.01C139.447,310.742,71.878,339.316.009,339.316l-.009,0v.881l.009,0c72.116,0,139.917-28.673,190.912-80.738S270,138.173,270,64.543a.428.428,0,0,0-.017-.082" transform="translate(0 -0.458)" fill="#ebebeb"/><path d="M63.681,129.815a.433.433,0,0,0,.163-.1,93.858,93.858,0,0,0,14.929-20.175c.007-.014.016-.028.024-.042q.734-1.337,1.422-2.7c.026-.05.053-.1.079-.151q.666-1.321,1.289-2.663c.037-.08.077-.158.114-.239q.605-1.311,1.165-2.639c.045-.105.093-.209.137-.314.363-.863.708-1.732,1.044-2.605.052-.134.108-.265.159-.4.322-.85.628-1.707.925-2.566.057-.163.118-.323.173-.486.288-.845.556-1.7.82-2.549.056-.182.118-.362.173-.544.261-.867.5-1.739.74-2.612.047-.173.1-.345.146-.519q.415-1.573.777-3.164l0-.016q.248-1.094.47-2.2l.011-.049q.219-1.094.413-2.2c0-.02.008-.04.011-.06q.2-1.113.364-2.236l.005-.034a94.557,94.557,0,0,0,1.046-14.02A93.064,93.064,0,0,0,64.452,0H63.235A92.205,92.205,0,0,1,89.4,64.522a.15.15,0,0,0,0,.021,93.463,93.463,0,0,1-1.031,13.878l0,.028q-.167,1.113-.361,2.219l-.011.059q-.192,1.093-.41,2.179l-.01.045q-.22,1.093-.465,2.179l0,.012c-.265,1.17-.557,2.329-.866,3.482-.088.328-.185.654-.276.982-.235.837-.479,1.672-.736,2.5-.11.354-.223.706-.336,1.058q-.406,1.252-.847,2.487c-.106.3-.211.6-.32.9q-.561,1.525-1.172,3.026c-.035.088-.069.178-.105.265q-1.4,3.4-3.06,6.653c-.1.191-.2.38-.3.57q-.689,1.329-1.416,2.634c-.117.208-.234.415-.352.623q-.767,1.345-1.576,2.662c-.082.134-.164.27-.247.4C59.618,138.88,31.712,155.832,0,155.832v.884a89.074,89.074,0,0,0,63.681-26.9" transform="translate(0 -0.458)" fill="#ebebeb"/></g></g></svg>