<svg xmlns="http://www.w3.org/2000/svg" xmlns:xlink="http://www.w3.org/1999/xlink" width="239.097" height="450" viewBox="0 0 239.097 450"><defs><clipPath id="a"><rect width="450" height="239.097" fill="none" stroke="#fff" stroke-width="1"/></clipPath></defs><g transform="translate(239.097) rotate(90)" opacity="0.3"><g clip-path="url(#a)"><path d="M79.638,149.073a13.648,13.648,0,0,0,9.786,9.791m6.809,0a13.648,13.648,0,0,0,9.785-9.791m0-6.813a13.648,13.648,0,0,0-9.785-9.791m-6.809,0a13.648,13.648,0,0,0-9.786,9.791m0,59.6a13.646,13.646,0,0,0,9.786,9.789m6.809,0a13.646,13.646,0,0,0,9.785-9.789m0-6.813a13.643,13.643,0,0,0-9.785-9.791m-6.809,0a13.643,13.643,0,0,0-9.786,9.791M53.259,175.466a13.648,13.648,0,0,0,9.786,9.791m6.809,0a13.648,13.648,0,0,0,9.785-9.791m0-6.813a13.644,13.644,0,0,0-9.785-9.789m-6.809,0a13.643,13.643,0,0,0-9.786,9.789m0,59.6a13.643,13.643,0,0,0,9.786,9.791m6.809,0a13.643,13.643,0,0,0,9.785-9.791m0-6.812a13.648,13.648,0,0,0-9.785-9.791m-6.809,0a13.648,13.648,0,0,0-9.786,9.791M26.879,149.073a13.65,13.65,0,0,0,9.786,9.791m6.809,0a13.648,13.648,0,0,0,9.785-9.791m0-6.813a13.648,13.648,0,0,0-9.785-9.791m-6.809,0a13.65,13.65,0,0,0-9.786,9.791m0,59.6a13.648,13.648,0,0,0,9.786,9.789m6.809,0a13.646,13.646,0,0,0,9.785-9.789m0-6.813a13.643,13.643,0,0,0-9.785-9.791m-6.809,0a13.645,13.645,0,0,0-9.786,9.791M.5,175.466a13.65,13.65,0,0,0,9.786,9.791m6.809,0a13.646,13.646,0,0,0,9.785-9.791m0-6.813a13.641,13.641,0,0,0-9.785-9.789m-6.809,0A13.646,13.646,0,0,0,.5,168.653m0,59.6a13.645,13.645,0,0,0,9.786,9.791m6.809,0a13.641,13.641,0,0,0,9.785-9.791m0-6.812a13.646,13.646,0,0,0-9.785-9.791m-6.809,0A13.65,13.65,0,0,0,.5,221.441M422.567,69.891a13.647,13.647,0,0,0,9.786,9.791m6.809,0a13.648,13.648,0,0,0,9.785-9.791m0-6.813a13.648,13.648,0,0,0-9.785-9.791m-6.809,0a13.647,13.647,0,0,0-9.786,9.791m0,59.6a13.643,13.643,0,0,0,9.786,9.789m6.809,0a13.644,13.644,0,0,0,9.785-9.789m0-6.813a13.646,13.646,0,0,0-9.785-9.791m-6.809,0a13.645,13.645,0,0,0-9.786,9.791M396.188,43.5a13.643,13.643,0,0,0,9.786,9.789m6.809,0a13.644,13.644,0,0,0,9.785-9.789m0-6.813a13.644,13.644,0,0,0-9.785-9.789m-6.809,0a13.643,13.643,0,0,0-9.786,9.789m0,59.6a13.642,13.642,0,0,0,9.786,9.791m6.809,0a13.643,13.643,0,0,0,9.785-9.791m0-6.812a13.648,13.648,0,0,0-9.785-9.791m-6.809,0a13.648,13.648,0,0,0-9.786,9.791M369.809,17.1a13.65,13.65,0,0,0,9.786,9.791m6.809,0a13.648,13.648,0,0,0,9.784-9.791m0-6.813A13.648,13.648,0,0,0,386.4.5m-6.809,0a13.65,13.65,0,0,0-9.786,9.791m0,59.6a13.65,13.65,0,0,0,9.786,9.791m6.809,0a13.648,13.648,0,0,0,9.784-9.791m0-6.813a13.648,13.648,0,0,0-9.784-9.791m-6.809,0a13.65,13.65,0,0,0-9.786,9.791m0,59.6a13.646,13.646,0,0,0,9.786,9.789m6.809,0a13.644,13.644,0,0,0,9.784-9.789m0-6.813a13.646,13.646,0,0,0-9.784-9.791m-6.809,0a13.648,13.648,0,0,0-9.786,9.791M343.429,43.5a13.646,13.646,0,0,0,9.786,9.789m6.809,0a13.641,13.641,0,0,0,9.784-9.789m0-6.813a13.641,13.641,0,0,0-9.784-9.789m-6.809,0a13.646,13.646,0,0,0-9.786,9.789m0,59.6a13.645,13.645,0,0,0,9.786,9.791m6.809,0a13.641,13.641,0,0,0,9.784-9.791m0-6.812a13.646,13.646,0,0,0-9.784-9.791m-6.809,0a13.65,13.65,0,0,0-9.786,9.791M317.051,17.1a13.648,13.648,0,0,0,9.785,9.791m6.809,0a13.645,13.645,0,0,0,9.784-9.791m0-6.813A13.645,13.645,0,0,0,333.645.5m-6.809,0a13.648,13.648,0,0,0-9.785,9.791m0,59.6a13.648,13.648,0,0,0,9.785,9.791m6.809,0a13.645,13.645,0,0,0,9.784-9.791m0-6.813a13.645,13.645,0,0,0-9.784-9.791m-6.809,0a13.648,13.648,0,0,0-9.785,9.791m0,59.6a13.644,13.644,0,0,0,9.785,9.789m6.809,0a13.641,13.641,0,0,0,9.784-9.789m0-6.813a13.643,13.643,0,0,0-9.784-9.791m-6.809,0a13.646,13.646,0,0,0-9.785,9.791M290.672,43.5a13.644,13.644,0,0,0,9.785,9.789m6.81,0a13.643,13.643,0,0,0,9.785-9.789m0-6.813a13.643,13.643,0,0,0-9.785-9.789m-6.81,0a13.644,13.644,0,0,0-9.785,9.789m0,59.6a13.643,13.643,0,0,0,9.785,9.791m6.81,0a13.643,13.643,0,0,0,9.785-9.791m0-6.812a13.648,13.648,0,0,0-9.785-9.791m-6.81,0a13.648,13.648,0,0,0-9.785,9.791M264.293,17.1a13.648,13.648,0,0,0,9.785,9.791m6.81,0a13.648,13.648,0,0,0,9.785-9.791m0-6.813A13.648,13.648,0,0,0,280.887.5m-6.81,0a13.648,13.648,0,0,0-9.785,9.791m0,59.6a13.648,13.648,0,0,0,9.785,9.791m6.81,0a13.648,13.648,0,0,0,9.785-9.791m0-6.813a13.648,13.648,0,0,0-9.785-9.791m-6.81,0a13.648,13.648,0,0,0-9.785,9.791m0,59.6a13.644,13.644,0,0,0,9.785,9.789m6.81,0a13.644,13.644,0,0,0,9.785-9.789m0-6.813a13.646,13.646,0,0,0-9.785-9.791m-6.81,0a13.646,13.646,0,0,0-9.785,9.791M237.913,43.5a13.643,13.643,0,0,0,9.786,9.789m6.809,0a13.644,13.644,0,0,0,9.785-9.789m0-6.813a13.644,13.644,0,0,0-9.785-9.789m-6.809,0a13.643,13.643,0,0,0-9.786,9.789m0,59.6a13.642,13.642,0,0,0,9.786,9.791m6.809,0a13.643,13.643,0,0,0,9.785-9.791m0-6.812a13.648,13.648,0,0,0-9.785-9.791m-6.809,0a13.648,13.648,0,0,0-9.786,9.791M211.534,17.1a13.648,13.648,0,0,0,9.786,9.791m6.809,0a13.648,13.648,0,0,0,9.785-9.791m0-6.813A13.648,13.648,0,0,0,228.129.5M221.32.5a13.648,13.648,0,0,0-9.786,9.791m0,59.6a13.648,13.648,0,0,0,9.786,9.791m6.809,0a13.648,13.648,0,0,0,9.785-9.791m0-6.813a13.648,13.648,0,0,0-9.785-9.791m-6.809,0a13.648,13.648,0,0,0-9.786,9.791m0,59.6a13.643,13.643,0,0,0,9.786,9.789m6.809,0a13.644,13.644,0,0,0,9.785-9.789m0-6.813a13.646,13.646,0,0,0-9.785-9.791m-6.809,0a13.645,13.645,0,0,0-9.786,9.791M185.156,43.5a13.644,13.644,0,0,0,9.785,9.789m6.809,0a13.641,13.641,0,0,0,9.785-9.789m0-6.813a13.641,13.641,0,0,0-9.785-9.789m-6.809,0a13.644,13.644,0,0,0-9.785,9.789m0,59.6a13.643,13.643,0,0,0,9.785,9.791m6.809,0a13.64,13.64,0,0,0,9.785-9.791m0-6.812a13.646,13.646,0,0,0-9.785-9.791m-6.809,0a13.648,13.648,0,0,0-9.785,9.791M158.776,17.1a13.648,13.648,0,0,0,9.785,9.791m6.809,0a13.648,13.648,0,0,0,9.786-9.791m0-6.813A13.648,13.648,0,0,0,175.37.5m-6.809,0a13.648,13.648,0,0,0-9.785,9.791m0,59.6a13.648,13.648,0,0,0,9.785,9.791m6.809,0a13.648,13.648,0,0,0,9.786-9.791m0-6.813a13.648,13.648,0,0,0-9.786-9.791m-6.809,0a13.648,13.648,0,0,0-9.785,9.791m0,59.6a13.644,13.644,0,0,0,9.785,9.789m6.809,0a13.643,13.643,0,0,0,9.786-9.789m0-6.813a13.645,13.645,0,0,0-9.786-9.791m-6.809,0a13.646,13.646,0,0,0-9.785,9.791M132.4,43.5a13.644,13.644,0,0,0,9.785,9.789m6.809,0a13.643,13.643,0,0,0,9.786-9.789m0-6.813a13.643,13.643,0,0,0-9.786-9.789m-6.809,0a13.644,13.644,0,0,0-9.785,9.789m0,59.6a13.643,13.643,0,0,0,9.785,9.791m6.809,0a13.642,13.642,0,0,0,9.786-9.791m0-6.812a13.648,13.648,0,0,0-9.786-9.791m-6.809,0a13.648,13.648,0,0,0-9.785,9.791M106.018,17.1a13.648,13.648,0,0,0,9.785,9.791m6.809,0A13.648,13.648,0,0,0,132.4,17.1m0-6.813A13.648,13.648,0,0,0,122.611.5M115.8.5a13.648,13.648,0,0,0-9.785,9.791m0,59.6a13.648,13.648,0,0,0,9.785,9.791m6.809,0a13.648,13.648,0,0,0,9.786-9.791m0-6.813a13.648,13.648,0,0,0-9.786-9.791m-6.809,0a13.648,13.648,0,0,0-9.785,9.791m0,59.6a13.644,13.644,0,0,0,9.785,9.789m6.809,0a13.643,13.643,0,0,0,9.786-9.789m0-6.813a13.645,13.645,0,0,0-9.786-9.791m-6.809,0a13.646,13.646,0,0,0-9.785,9.791M79.638,43.5a13.643,13.643,0,0,0,9.786,9.789m6.809,0a13.644,13.644,0,0,0,9.785-9.789m0-6.813a13.644,13.644,0,0,0-9.785-9.789m-6.809,0a13.643,13.643,0,0,0-9.786,9.789m0,59.6a13.642,13.642,0,0,0,9.786,9.791m6.809,0a13.643,13.643,0,0,0,9.785-9.791m0-6.812a13.648,13.648,0,0,0-9.785-9.791m-6.809,0a13.648,13.648,0,0,0-9.786,9.791M53.259,17.1a13.648,13.648,0,0,0,9.786,9.791m6.809,0A13.648,13.648,0,0,0,79.638,17.1m0-6.813A13.648,13.648,0,0,0,69.854.5M63.045.5a13.648,13.648,0,0,0-9.786,9.791m0,59.6a13.648,13.648,0,0,0,9.786,9.791m6.809,0a13.648,13.648,0,0,0,9.785-9.791m0-6.813a13.648,13.648,0,0,0-9.785-9.791m-6.809,0a13.648,13.648,0,0,0-9.786,9.791m0,59.6a13.643,13.643,0,0,0,9.786,9.789m6.809,0a13.644,13.644,0,0,0,9.785-9.789m0-6.813a13.646,13.646,0,0,0-9.785-9.791m-6.809,0a13.645,13.645,0,0,0-9.786,9.791M26.879,43.5a13.646,13.646,0,0,0,9.786,9.789m6.809,0A13.644,13.644,0,0,0,53.259,43.5m0-6.813a13.644,13.644,0,0,0-9.785-9.789m-6.809,0a13.646,13.646,0,0,0-9.786,9.789m0,59.6a13.645,13.645,0,0,0,9.786,9.791m6.809,0a13.643,13.643,0,0,0,9.785-9.791m0-6.812a13.648,13.648,0,0,0-9.785-9.791m-6.809,0a13.65,13.65,0,0,0-9.786,9.791M.5,17.1a13.65,13.65,0,0,0,9.786,9.791m6.809,0A13.646,13.646,0,0,0,26.879,17.1m0-6.813A13.646,13.646,0,0,0,17.095.5M10.286.5A13.65,13.65,0,0,0,.5,10.291m0,59.6a13.65,13.65,0,0,0,9.786,9.791m6.809,0a13.646,13.646,0,0,0,9.785-9.791m0-6.813a13.646,13.646,0,0,0-9.785-9.791m-6.809,0A13.65,13.65,0,0,0,.5,63.078m0,59.6a13.646,13.646,0,0,0,9.786,9.789m6.809,0a13.641,13.641,0,0,0,9.785-9.789m0-6.813a13.643,13.643,0,0,0-9.785-9.791m-6.809,0A13.648,13.648,0,0,0,.5,115.866" transform="translate(0.277 0.277)" fill="none" stroke="#fff" stroke-linecap="round" stroke-linejoin="round" stroke-width="1"/><path d="M385.009,17.1a13.648,13.648,0,0,0,9.786,9.791m6.81,0a13.652,13.652,0,0,0,9.788-9.791m0-6.813A13.652,13.652,0,0,0,401.605.5m-6.81,0a13.648,13.648,0,0,0-9.786,9.791m0,165.175a13.648,13.648,0,0,0,9.786,9.791m6.81,0a13.652,13.652,0,0,0,9.788-9.791m0-6.813a13.652,13.652,0,0,0-9.788-9.791m-6.81,0a13.648,13.648,0,0,0-9.786,9.791m0,59.6a13.643,13.643,0,0,0,9.786,9.791m6.81,0a13.647,13.647,0,0,0,9.788-9.791m0-6.812a13.65,13.65,0,0,0-9.788-9.791m-6.81,0a13.645,13.645,0,0,0-9.786,9.791m-26.386-72.368a13.648,13.648,0,0,0,9.788,9.789m6.81,0a13.648,13.648,0,0,0,9.788-9.789m0-6.813a13.652,13.652,0,0,0-9.788-9.791m-6.81,0a13.652,13.652,0,0,0-9.788,9.791m0,59.6a13.65,13.65,0,0,0,9.788,9.789m6.81,0a13.65,13.65,0,0,0,9.788-9.789m0-6.813a13.647,13.647,0,0,0-9.788-9.791m-6.81,0a13.647,13.647,0,0,0-9.788,9.791m-26.384-19.581a13.652,13.652,0,0,0,9.788,9.791m6.81,0a13.648,13.648,0,0,0,9.786-9.791m0-6.813a13.648,13.648,0,0,0-9.786-9.791m-6.81,0a13.652,13.652,0,0,0-9.788,9.791m0,59.6a13.647,13.647,0,0,0,9.788,9.791m6.81,0a13.643,13.643,0,0,0,9.786-9.791m0-6.812a13.645,13.645,0,0,0-9.786-9.791m-6.81,0a13.65,13.65,0,0,0-9.788,9.791m-26.384-72.368a13.648,13.648,0,0,0,9.788,9.789m6.81,0a13.643,13.643,0,0,0,9.786-9.789m0-6.813a13.648,13.648,0,0,0-9.786-9.791m-6.81,0a13.652,13.652,0,0,0-9.788,9.791m0,59.6a13.65,13.65,0,0,0,9.788,9.789m6.81,0a13.646,13.646,0,0,0,9.786-9.789m0-6.813a13.642,13.642,0,0,0-9.786-9.791m-6.81,0a13.647,13.647,0,0,0-9.788,9.791m-26.384-19.581a13.65,13.65,0,0,0,9.788,9.791m6.81,0a13.648,13.648,0,0,0,9.786-9.791m0-6.813a13.648,13.648,0,0,0-9.786-9.791m-6.81,0a13.65,13.65,0,0,0-9.788,9.791m0,59.6a13.644,13.644,0,0,0,9.788,9.791m6.81,0a13.643,13.643,0,0,0,9.786-9.791m0-6.812a13.645,13.645,0,0,0-9.786-9.791m-6.81,0a13.647,13.647,0,0,0-9.788,9.791m-26.384-72.368a13.645,13.645,0,0,0,9.788,9.789m6.81,0a13.643,13.643,0,0,0,9.786-9.789m0-6.813a13.648,13.648,0,0,0-9.786-9.791m-6.81,0a13.65,13.65,0,0,0-9.788,9.791m0,59.6a13.648,13.648,0,0,0,9.788,9.789m6.81,0a13.646,13.646,0,0,0,9.786-9.789m0-6.813a13.643,13.643,0,0,0-9.786-9.791m-6.81,0a13.645,13.645,0,0,0-9.788,9.791M226.7,175.466a13.647,13.647,0,0,0,9.788,9.791m6.81,0a13.648,13.648,0,0,0,9.786-9.791m0-6.813a13.648,13.648,0,0,0-9.786-9.791m-6.81,0a13.647,13.647,0,0,0-9.788,9.791m0,59.6a13.642,13.642,0,0,0,9.788,9.791m6.81,0a13.643,13.643,0,0,0,9.786-9.791m0-6.812a13.645,13.645,0,0,0-9.786-9.791m-6.81,0a13.645,13.645,0,0,0-9.788,9.791m-26.384-72.368a13.643,13.643,0,0,0,9.786,9.789m6.81,0a13.645,13.645,0,0,0,9.788-9.789m0-6.813a13.65,13.65,0,0,0-9.788-9.791m-6.81,0a13.648,13.648,0,0,0-9.786,9.791m0,59.6a13.646,13.646,0,0,0,9.786,9.789m6.81,0a13.648,13.648,0,0,0,9.788-9.789m0-6.813a13.644,13.644,0,0,0-9.788-9.791m-6.81,0a13.643,13.643,0,0,0-9.786,9.791m-26.384-19.581a13.648,13.648,0,0,0,9.786,9.791m6.81,0a13.65,13.65,0,0,0,9.788-9.791m0-6.813a13.65,13.65,0,0,0-9.788-9.791m-6.81,0a13.648,13.648,0,0,0-9.786,9.791m0,59.6a13.642,13.642,0,0,0,9.786,9.791m6.81,0a13.645,13.645,0,0,0,9.788-9.791m0-6.812a13.647,13.647,0,0,0-9.788-9.791m-6.81,0a13.645,13.645,0,0,0-9.786,9.791m-26.384-72.368a13.643,13.643,0,0,0,9.786,9.789m6.81,0a13.645,13.645,0,0,0,9.788-9.789m0-6.813a13.65,13.65,0,0,0-9.788-9.791m-6.81,0a13.648,13.648,0,0,0-9.786,9.791m0,59.6a13.646,13.646,0,0,0,9.786,9.789m6.81,0a13.648,13.648,0,0,0,9.788-9.789m0-6.813a13.645,13.645,0,0,0-9.788-9.791m-6.81,0a13.643,13.643,0,0,0-9.786,9.791m-26.384-19.581a13.648,13.648,0,0,0,9.786,9.791m6.81,0a13.65,13.65,0,0,0,9.788-9.791m0-6.813a13.65,13.65,0,0,0-9.788-9.791m-6.81,0a13.648,13.648,0,0,0-9.786,9.791m0,59.6a13.643,13.643,0,0,0,9.786,9.791m6.81,0a13.645,13.645,0,0,0,9.788-9.791m0-6.812a13.647,13.647,0,0,0-9.788-9.791m-6.81,0a13.645,13.645,0,0,0-9.786,9.791M94.783,149.073a13.643,13.643,0,0,0,9.786,9.789m6.81,0a13.648,13.648,0,0,0,9.788-9.789m0-6.813a13.652,13.652,0,0,0-9.788-9.791m-6.81,0a13.648,13.648,0,0,0-9.786,9.791m0,59.6a13.646,13.646,0,0,0,9.786,9.789m6.81,0a13.65,13.65,0,0,0,9.788-9.789m0-6.813a13.647,13.647,0,0,0-9.788-9.791m-6.81,0a13.643,13.643,0,0,0-9.786,9.791M68.4,175.466a13.652,13.652,0,0,0,9.788,9.791m6.81,0a13.652,13.652,0,0,0,9.788-9.791m0-6.813a13.652,13.652,0,0,0-9.788-9.791m-6.81,0a13.652,13.652,0,0,0-9.788,9.791m0,59.6a13.647,13.647,0,0,0,9.788,9.791m6.81,0a13.647,13.647,0,0,0,9.788-9.791m0-6.812a13.65,13.65,0,0,0-9.788-9.791m-6.81,0a13.65,13.65,0,0,0-9.788,9.791" transform="translate(37.83 0.277)" fill="none" stroke="#fff" stroke-linecap="round" stroke-linejoin="round" stroke-width="1"/></g></g></svg>