<svg xmlns="http://www.w3.org/2000/svg" width="14.063" height="14.063" viewBox="0 0 14.063 14.063"><path d="M-.775-.218a.843.843,0,0,1-.844.844.843.843,0,0,1-.843-.844.843.843,0,0,1,.843-.844.843.843,0,0,1,.844.844m-4.6,6.1A2.343,2.343,0,0,1-7.715,3.534,2.343,2.343,0,0,1-5.372,1.191,2.345,2.345,0,0,1-3.027,3.534,2.345,2.345,0,0,1-5.372,5.878m0-5.954a3.612,3.612,0,0,0-3.611,3.61A3.612,3.612,0,0,0-5.372,7.146a3.61,3.61,0,0,0,3.61-3.611,3.61,3.61,0,0,0-3.61-3.61M.353,6.376A3.907,3.907,0,0,1,.109,7.682,2.326,2.326,0,0,1-1.225,9.016a3.88,3.88,0,0,1-1.3.242c-.742.034-.964.041-2.842.041s-2.1-.008-2.841-.041a3.881,3.881,0,0,1-1.306-.242,2.178,2.178,0,0,1-.809-.526,2.205,2.205,0,0,1-.526-.808A3.9,3.9,0,0,1-11.1,6.376c-.033-.741-.04-.964-.04-2.842s.007-2.1.04-2.84a3.9,3.9,0,0,1,.242-1.306,2.2,2.2,0,0,1,.526-.809,2.189,2.189,0,0,1,.809-.526,3.9,3.9,0,0,1,1.306-.242c.742-.035.964-.04,2.841-.04s2.1.006,2.842.04a3.9,3.9,0,0,1,1.3.242,2.178,2.178,0,0,1,.808.526,2.166,2.166,0,0,1,.526.809A3.9,3.9,0,0,1,.353.695c.033.74.04.963.04,2.84s-.008,2.1-.04,2.842M1.617.636A5.156,5.156,0,0,0,1.29-1.071,3.444,3.444,0,0,0,.48-2.316,3.441,3.441,0,0,0-.767-3.127a5.17,5.17,0,0,0-1.706-.327c-.749-.034-.988-.042-2.9-.042s-2.149.008-2.9.042a5.19,5.19,0,0,0-1.707.327,3.442,3.442,0,0,0-1.245.811,3.446,3.446,0,0,0-.811,1.245A5.155,5.155,0,0,0-12.36.636c-.035.751-.043.99-.043,2.9s.008,2.149.043,2.9a5.15,5.15,0,0,0,.326,1.706,3.446,3.446,0,0,0,.811,1.245,3.418,3.418,0,0,0,1.245.811,5.191,5.191,0,0,0,1.707.328c.75.033.989.042,2.9.042s2.15-.009,2.9-.042A5.171,5.171,0,0,0-.767,10.2,3.586,3.586,0,0,0,1.29,8.14a5.151,5.151,0,0,0,.327-1.706c.035-.751.042-.99.042-2.9s-.007-2.148-.042-2.9" transform="translate(12.403 3.496)" fill="#fff"/></svg>