<svg xmlns="http://www.w3.org/2000/svg" xmlns:xlink="http://www.w3.org/1999/xlink" width="16" height="16.332" viewBox="0 0 16 16.332"><defs><clipPath id="a"><rect width="16" height="16.332" fill="#ff5b38"/></clipPath></defs><g clip-path="url(#a)"><path d="M15.814,11.852h0a2.944,2.944,0,0,0-4.222,0,3.078,3.078,0,0,0,0,4.283,2.943,2.943,0,0,0,4.222,0,3.078,3.078,0,0,0,0-4.283h0m-.67,3.628a2.007,2.007,0,0,1-2.883,0h0a2.137,2.137,0,0,1,0-2.974,2.008,2.008,0,0,1,2.883,0,2.137,2.137,0,0,1,0,2.974" transform="translate(-5.703 -5.827)" fill="#ff5b38"/><path d="M13.665,2.4h0a7.894,7.894,0,0,0-11.328,0,8.294,8.294,0,0,0,0,11.54h0a7.893,7.893,0,0,0,11.328,0,8.294,8.294,0,0,0,0-11.54m-.671,10.885a6.957,6.957,0,0,1-9.988,0h0a7.353,7.353,0,0,1,0-10.231,6.958,6.958,0,0,1,9.988,0h0a7.354,7.354,0,0,1,0,10.231" transform="translate(0 0)" fill="#ff5b38"/><path d="M14.739,7.123a5.418,5.418,0,0,0-7.775,0,5.686,5.686,0,0,0,0,7.911h0a5.418,5.418,0,0,0,7.775,0,5.685,5.685,0,0,0,0-7.912m-.67,7.257a4.481,4.481,0,0,1-6.435,0h0a4.745,4.745,0,0,1,0-6.6,4.481,4.481,0,0,1,6.435,0h0a4.744,4.744,0,0,1,0,6.6" transform="translate(-2.851 -2.913)" fill="#ff5b38"/></g></svg>