<svg xmlns="http://www.w3.org/2000/svg" xmlns:xlink="http://www.w3.org/1999/xlink" width="111.366" height="90" viewBox="0 0 111.366 90"><defs><clipPath id="a"><rect width="111.366" height="90" fill="none" stroke="#fff" stroke-width="1"/></clipPath></defs><g opacity="0.3"><g transform="translate(0 0)" clip-path="url(#a)"><path d="M35.047.651Q37.7,3.7,39.986,6.727,42.26,9.769,44.538,12.8q-17.084,10.632-19.36,28.85,9.488,0,15.756,5.128T47.2,62.158a22.655,22.655,0,0,1-6.265,16.135,20.306,20.306,0,0,1-15.377,6.644A22.851,22.851,0,0,1,7.713,76.773Q.5,68.615.5,54.562q0-18.221,10.063-31.507A91.938,91.938,0,0,1,35.047.651ZM104.525,13.56A53.6,53.6,0,0,0,91.615,26.28a35.082,35.082,0,0,0-6.455,16.135,21.494,21.494,0,0,1,15.566,4.556q6.834,5.322,6.834,15.566a22.773,22.773,0,0,1-6.45,16.514,20.919,20.919,0,0,1-15.566,6.644q-10.257,0-17.465-8.349T60.866,55.324q0-18.227,9.869-31.705A81.7,81.7,0,0,1,95.413,1.413Z" transform="translate(1.653 2.152)" fill="none" stroke="#fff" stroke-width="1"/></g></g></svg>