<svg xmlns="http://www.w3.org/2000/svg" width="15.233" height="12.188" viewBox="0 0 15.233 12.188"><path d="M-1.015-.1a6.333,6.333,0,0,1-1.8.484,3.12,3.12,0,0,0,1.376-1.7,6.383,6.383,0,0,1-1.988.745A3.129,3.129,0,0,0-5.7-1.542,3.1,3.1,0,0,0-8.828,1.535a3.063,3.063,0,0,0,.081.7A8.921,8.921,0,0,1-15.189-.979,3.031,3.031,0,0,0-15.611.569a3.071,3.071,0,0,0,1.39,2.561,3.212,3.212,0,0,1-1.416-.384v.038A3.023,3.023,0,0,0-15.422,3.9a3.117,3.117,0,0,0,2.293,1.9,3.233,3.233,0,0,1-.823.108,3.172,3.172,0,0,1-.588-.056,3.12,3.12,0,0,0,2.918,2.136A6.333,6.333,0,0,1-15.5,9.3a6.526,6.526,0,0,1-.746-.042,8.955,8.955,0,0,0,4.788,1.383,8.7,8.7,0,0,0,8.68-6.9,8.481,8.481,0,0,0,.213-1.859c0-.133,0-.266-.009-.395A6.332,6.332,0,0,0-1.015-.1" transform="translate(16.248 1.542)" fill="#fff"/></svg>