<svg xmlns="http://www.w3.org/2000/svg" width="17.032" height="12" viewBox="0 0 17.032 12"><path d="M0,0A2.141,2.141,0,0,0-1.506-1.516,50.6,50.6,0,0,0-8.16-1.874a50.62,50.62,0,0,0-6.655.358A2.14,2.14,0,0,0-16.32,0a22.444,22.444,0,0,0-.356,4.126,22.444,22.444,0,0,0,.356,4.126,2.138,2.138,0,0,0,1.505,1.516,50.619,50.619,0,0,0,6.655.358,50.6,50.6,0,0,0,6.654-.358A2.14,2.14,0,0,0,0,8.252,22.444,22.444,0,0,0,.356,4.126,22.444,22.444,0,0,0,0,0M-9.9,6.659V1.594l4.451,2.532Z" transform="translate(16.676 1.874)" fill="#fff"/></svg>